HIERARCHY
ROOT pelvis
{
  OFFSET 0 100 0
  CHANNELS 6 Xposition Yposition Zposition Zrotation Xrotation Yrotation
  JOINT pelvis_right_femur
  {
    OFFSET -10.78128 -3.44521 -0.5502486
    CHANNELS 3 Zrotation Xrotation Yrotation
    JOINT right_femur_tibia
    {
      OFFSET -0.8047443 -44.0398 -0.1307829
      CHANNELS 3 Zrotation Xrotation Yrotation
      JOINT right_tibia_foot
      {
        OFFSET 3.006224 -47.83518 -5
        CHANNELS 3 Zrotation Xrotation Yrotation
        End Site
        {
          OFFSET 0 -5 15
        }
      }
    }
  }
  JOINT pelvis_left_femur
  {
    OFFSET 10.78128 -3.44521 -0.5502486
    CHANNELS 3 Zrotation Xrotation Yrotation
    JOINT left_femur_tibia
    {
      OFFSET 0.8047443 -44.0398 -0.1307829
      CHANNELS 3 Zrotation Xrotation Yrotation
      JOINT left_tibia_foot
      {
        OFFSET -4.370144 -48.10324 -4.275266
        CHANNELS 3 Zrotation Xrotation Yrotation
        End Site
        {
          OFFSET 0 -5 15
        }
      }
    }
  }
  JOINT pelvis_spine1
  {
    OFFSET 0 6.468898 -3.129235
    CHANNELS 3 Zrotation Xrotation Yrotation
    JOINT spine1
    {
      OFFSET 0 23.15396 4.99043
      CHANNELS 3 Zrotation Xrotation Yrotation
      JOINT spine2
      {
        OFFSET 0 20.79997 -5.064912
        CHANNELS 3 Zrotation Xrotation Yrotation
        JOINT neck
        {
          OFFSET 0 14.38658 9.616178
          CHANNELS 3 Zrotation Xrotation Yrotation
          End Site
          {
            OFFSET 0 20 0
          }
        }
      }
      JOINT right_manubrium
      {
        OFFSET -5.722621 16.35077 3.967754
        CHANNELS 3 Zrotation Xrotation Yrotation
        JOINT right_clavicle
        {
          OFFSET -13.16364 1.694482 -4.693211
          CHANNELS 3 Zrotation Xrotation Yrotation
          JOINT right_humerus
          {
            OFFSET -28.5034 -0.3100689 -2.792744
            CHANNELS 3 Zrotation Xrotation Yrotation
            JOINT right_radius
            {
              OFFSET -25.15693 0.02248979 -1.271978
              CHANNELS 3 Zrotation Xrotation Yrotation
              End Site
              {
                OFFSET -15 0 0
              }
            }
          }
        }
      }
      JOINT left_manubrium
      {
        OFFSET 5.722621 16.35077 3.967754
        CHANNELS 3 Zrotation Xrotation Yrotation
        JOINT left_clavicle
        {
          OFFSET 13.16364 1.694482 -4.693211
          CHANNELS 3 Zrotation Xrotation Yrotation
          JOINT left_humerus
          {
            OFFSET 29.39168 -1.063119 -2.237045
            CHANNELS 3 Zrotation Xrotation Yrotation
            JOINT left_radius
            {
              OFFSET 24.59957 -0.9528479 0.9047498
              CHANNELS 3 Zrotation Xrotation Yrotation
              End Site
              {
                OFFSET 15 -0 -0
              }
            }
          }
        }
      }
    }
  }
}
MOTION
Frames: 7
Frame Time: 0.0416666666667
-885.816 152.2657 5.894253 18.1449 8.621482 111.8561 4.268116 19.98966 -9.812758 -0 17.87952 -0 -14.23851 -4.674097 0.4595594 -2.318262 -2.684307 -14.32311 -0 17.0083 -0 -3.411669 -10.71298 26.85754 -1.4048 -2.287415 7.049711 -0.4059709 14.72638 -6.644786 -0.9326707 21.17674 5.887935 7.44106 -12.59408 0.5887079 3.971114 -22.51959 13.33457 86.07072 28.0162 -15.93888 -0 0 20.87446 -20.95249 8.757953 5.752566 7.129057 -27.98118 -9.673501 -90.77704 4.700227 23.98305 0 0 -11.11612 16.06486 13.19848 -9.069223
-880.5753 152.1323 3.173608 18.10812 8.493212 111.1869 3.828557 20.3712 -9.8754 -0 19.02972 -0 -14.36686 -4.029814 0.8964935 -2.621416 -2.555964 -14.90532 -0 15.9995 -0 -3.788051 -10.9428 26.84196 -1.379719 -2.314091 7.092598 -0.3964337 14.71479 -6.694711 -0.96055 21.12658 5.895243 7.499799 -12.48688 0.5001704 4.032061 -22.47483 13.36262 86.03023 28.03512 -16.04631 -0 0 20.8938 -20.90893 8.763983 5.672248 7.196849 -28.09689 -9.652222 -90.78446 4.612913 23.96674 0 0 -11.24841 16.0452 13.22287 -9.044727
-875.3023 152.0192 0.480742 18.07282 8.42018 110.587 3.385991 20.44973 -10.03835 -0 20.12604 -0 -14.56031 -3.144512 1.388802 -2.95812 -2.182494 -15.44537 -0 15.26823 -0 -4.072201 -11.23923 26.78101 -1.347119 -2.347882 7.124306 -0.3890962 14.70165 -6.772652 -0.988849 21.06568 5.911721 7.586056 -12.3502 0.3908824 4.112345 -22.36307 13.39803 86.01515 28.08645 -16.24889 -0 0 20.85068 -20.86824 8.779651 5.540489 7.326021 -28.27606 -9.612644 -90.74352 4.49307 23.78965 0 0 -11.55528 16.05781 13.27427 -9.095283
-870.0003 151.9279 -2.17421 18.04341 8.389896 110.059 2.967922 20.21408 -10.29948 -0 21.1056 -0 -14.8082 -2.104732 1.908464 -3.300046 -1.587413 -15.91263 -0 14.76783 -0 -4.250699 -11.59342 26.67483 -1.308515 -2.387943 7.144294 -0.3843423 14.686 -6.874452 -1.016803 20.99552 5.937325 7.695965 -12.19104 0.2659254 4.207715 -22.19221 13.43886 86.02296 28.16684 -16.53212 -0 0 20.75321 -20.83362 8.804645 5.366775 7.51134 -28.509 -9.55351 -90.65982 4.345833 23.46677 0 0 -12.01634 16.09934 13.3502 -9.214357
-864.6743 151.8542 -4.780894 18.01773 8.386365 109.6028 2.596711 19.66071 -10.65192 -0 21.89899 -0 -15.09274 -1.008704 2.42633 -3.623008 -0.799311 -16.27863 -0 14.44471 -0 -4.312078 -11.99401 26.52132 -1.265601 -2.432995 7.152125 -0.3823303 14.66662 -6.994867 -1.043468 20.91789 5.971808 7.824205 -12.01871 0.1319096 4.312501 -21.97287 13.48256 86.05071 28.2715 -16.87777 -0 0 20.61139 -20.80837 8.83876 5.162949 7.745252 -28.78313 -9.473829 -90.54064 4.177978 23.01865 0 0 -12.60522 16.16521 13.44678 -9.392715
-859.3292 151.789 -7.330132 17.98847 8.393061 109.2148 2.28696 18.79847 -11.08351 -0 22.43674 -0 -15.39079 0.04840389 2.914563 -3.910028 0.1480749 -16.52109 -0 14.25209 -0 -4.24891 -12.42805 26.31842 -1.220173 -2.481309 7.147439 -0.3830007 14.64251 -7.127961 -1.067731 20.83502 6.014546 7.964365 -11.84385 -0.003615885 4.420236 -21.71725 13.52638 86.09556 28.39465 -17.26584 -0 0 20.43569 -20.79537 8.881728 4.941816 8.018143 -29.08405 -9.373626 -90.39405 3.997503 22.4693 0 0 -13.29193 16.25035 13.5591 -9.6196
-853.969 151.7208 -9.814867 17.94555 8.395279 108.8879 2.044883 17.65188 -11.57713 -0 22.65847 -0 -15.67709 0.9875555 3.349314 -4.152456 1.215972 -16.62692 -0 14.15802 -0 -4.059738 -12.8818 26.06642 -1.174059 -2.530762 7.130024 -0.3860939 14.61321 -7.267514 -1.088386 20.74968 6.064429 8.109421 -11.67732 -0.1328575 4.524341 -21.43816 13.56755 86.15512 28.53005 -17.67633 -0 0 20.2359 -20.79656 8.93302 4.715855 8.318691 -29.39663 -9.254544 -90.228 3.813072 21.8445 0 0 -14.04488 16.34981 13.6815 -9.883699
